<svg width="12" height="17" viewBox="0 0 12 17" fill="none" xmlns="http://www.w3.org/2000/svg">
<path d="M5.37578 15.6875C0.813281 9.125 0.000781059 8.4375 0.000781059 6C0.000781059 2.6875 2.65703 0 6.00078 0C9.31328 0 12.0008 2.6875 12.0008 6C12.0008 8.4375 11.157 9.125 6.59453 15.6875C6.31328 16.125 5.65703 16.125 5.37578 15.6875ZM6.00078 8.5C7.37578 8.5 8.50078 7.40625 8.50078 6C8.50078 4.625 7.37578 3.5 6.00078 3.5C4.59453 3.5 3.50078 4.625 3.50078 6C3.50078 7.40625 4.59453 8.5 6.00078 8.5Z" fill="white"/>
</svg>
