<svg width="16" height="16" viewBox="0 0 16 16" fill="none" xmlns="http://www.w3.org/2000/svg">
<path d="M5.50039 6.75C5.21914 6.75 5.00039 6.53125 5.00039 6.25V5.75C5.00039 5.5 5.21914 5.25 5.50039 5.25H10.5004C10.7504 5.25 11.0004 5.5 11.0004 5.75V6.25C11.0004 6.53125 10.7504 6.75 10.5004 6.75H5.50039ZM5.00039 9.25V8.75C5.00039 8.5 5.21914 8.25 5.50039 8.25H10.5004C10.7504 8.25 11.0004 8.5 11.0004 8.75V9.25C11.0004 9.53125 10.7504 9.75 10.5004 9.75H5.50039C5.21914 9.75 5.00039 9.53125 5.00039 9.25ZM8.00039 13.0625C8.50039 13.0625 9.00039 12.9062 9.43789 12.5625L16.0004 7.84375V14.5C16.0004 15.3438 15.3129 16 14.5004 16H1.50039C0.656641 16 0.000391006 15.3438 0.000391006 14.5V7.84375L6.53164 12.5625C6.96914 12.9062 7.46914 13.0625 8.00039 13.0625ZM15.4066 5.09375C15.7816 5.40625 16.0004 5.8125 16.0004 6.28125V6.625L13.0004 8.78125V3H3.00039V8.78125L0.000391006 6.625V6.28125C0.000391006 5.8125 0.219141 5.375 0.562891 5.09375C0.844141 4.90625 1.09414 4.6875 1.50039 4.40625V3C1.50039 2.1875 2.15664 1.5 3.00039 1.5H5.40664C5.50039 1.4375 5.59414 1.375 5.68789 1.3125C6.21914 0.9375 7.25039 0 8.00039 0C8.71914 0 9.75039 0.9375 10.2816 1.3125C10.3754 1.375 10.4691 1.4375 10.5629 1.5H13.0004C13.8129 1.5 14.5004 2.1875 14.5004 3V4.40625C14.8754 4.6875 15.1254 4.90625 15.4066 5.09375Z" fill="white"/>
</svg>
