<svg width="15" height="15" viewBox="0 0 15 15" fill="none" xmlns="http://www.w3.org/2000/svg">
<path d="M7.03086 3.40625C8.99961 3.40625 10.6246 5.03125 10.6246 7C10.6246 9 8.99961 10.5938 7.03086 10.5938C5.03086 10.5938 3.43711 9 3.43711 7C3.43711 5.03125 5.03086 3.40625 7.03086 3.40625ZM7.03086 9.34375C8.31211 9.34375 9.34336 8.3125 9.34336 7C9.34336 5.71875 8.31211 4.6875 7.03086 4.6875C5.71836 4.6875 4.68711 5.71875 4.68711 7C4.68711 8.3125 5.74961 9.34375 7.03086 9.34375ZM11.5934 3.28125C11.5934 3.75 11.2184 4.125 10.7496 4.125C10.2809 4.125 9.90586 3.75 9.90586 3.28125C9.90586 2.8125 10.2809 2.4375 10.7496 2.4375C11.2184 2.4375 11.5934 2.8125 11.5934 3.28125ZM13.9684 4.125C14.0309 5.28125 14.0309 8.75 13.9684 9.90625C13.9059 11.0312 13.6559 12 12.8434 12.8438C12.0309 13.6562 11.0309 13.9062 9.90586 13.9688C8.74961 14.0312 5.28086 14.0312 4.12461 13.9688C2.99961 13.9062 2.03086 13.6562 1.18711 12.8438C0.374609 12 0.124609 11.0312 0.0621095 9.90625C-0.00039053 8.75 -0.00039053 5.28125 0.0621095 4.125C0.124609 3 0.374609 2 1.18711 1.1875C2.03086 0.375 2.99961 0.125 4.12461 0.0625C5.28086 0 8.74961 0 9.90586 0.0625C11.0309 0.125 12.0309 0.375 12.8434 1.1875C13.6559 2 13.9059 3 13.9684 4.125ZM12.4684 11.125C12.8434 10.2188 12.7496 8.03125 12.7496 7C12.7496 6 12.8434 3.8125 12.4684 2.875C12.2184 2.28125 11.7496 1.78125 11.1559 1.5625C10.2184 1.1875 8.03086 1.28125 7.03086 1.28125C5.99961 1.28125 3.81211 1.1875 2.90586 1.5625C2.28086 1.8125 1.81211 2.28125 1.56211 2.875C1.18711 3.8125 1.28086 6 1.28086 7C1.28086 8.03125 1.18711 10.2188 1.56211 11.125C1.81211 11.75 2.28086 12.2188 2.90586 12.4688C3.81211 12.8438 5.99961 12.75 7.03086 12.75C8.03086 12.75 10.2184 12.8438 11.1559 12.4688C11.7496 12.2188 12.2496 11.75 12.4684 11.125Z" fill="white"/>
</svg>
