<svg width="31" height="31" viewBox="0 0 31 31" fill="none" xmlns="http://www.w3.org/2000/svg">
<path d="M29.0039 1.58203C29.6484 1.75781 30.1172 2.28516 30.1172 2.92969C30.1172 17.9883 17.9297 30.1172 2.92969 30.1172C2.22656 30.1172 1.69922 29.707 1.52344 29.0625L0.117188 22.9688C0 22.3242 0.292969 21.6211 0.9375 21.3281L7.5 18.5156C8.08594 18.2812 8.73047 18.457 9.14062 18.9258L12.0703 22.5C16.6406 20.332 20.332 16.582 22.4414 12.1289L18.8672 9.19922C18.3984 8.78906 18.2227 8.14453 18.457 7.55859L21.2695 0.996094C21.5625 0.351562 22.2656 0 22.9102 0.175781L29.0039 1.58203Z" fill="white"/>
</svg>
