<svg width="11" height="11" viewBox="0 0 11 11" fill="none" xmlns="http://www.w3.org/2000/svg">
<path d="M4.45234 0.726562L4.96797 0.210938C5.20234 0 5.55391 0 5.76484 0.210938L10.3352 4.75781C10.5461 4.99219 10.5461 5.34375 10.3352 5.55469L5.76484 10.125C5.55391 10.3359 5.20234 10.3359 4.96797 10.125L4.45234 9.60938C4.24141 9.375 4.24141 9.02344 4.45234 8.78906L7.28828 6.09375H0.561718C0.233593 6.09375 -0.000781536 5.85938 -0.000781536 5.53125V4.78125C-0.000781536 4.47656 0.233593 4.21875 0.561718 4.21875H7.28828L4.45234 1.54688C4.24141 1.3125 4.21797 0.960938 4.45234 0.726562Z" fill="white"/>
<a href="https://www.figma.com/design/XyQF2PqHFmF2VlxXAALhkp?node-id=8-1820">
<rect fill="black" fill-opacity="0" x="0.159375" y="-0.4" width="10.5" height="13.8"/>
</a>
</svg>
