<svg width="18" height="12" viewBox="0 0 18 12" fill="none" xmlns="http://www.w3.org/2000/svg">
<path d="M16.7186 1.90625C17.0936 3.21875 17.0936 6.03125 17.0936 6.03125C17.0936 6.03125 17.0936 8.8125 16.7186 10.1562C16.5311 10.9062 15.9373 11.4688 15.2186 11.6562C13.8748 12 8.56231 12 8.56231 12C8.56231 12 3.21856 12 1.87481 11.6562C1.15606 11.4688 0.562305 10.9062 0.374805 10.1562C-0.00019455 8.8125 -0.00019455 6.03125 -0.00019455 6.03125C-0.00019455 6.03125 -0.00019455 3.21875 0.374805 1.90625C0.562305 1.15625 1.15606 0.5625 1.87481 0.375C3.21856 0 8.56231 0 8.56231 0C8.56231 0 13.8748 0 15.2186 0.375C15.9373 0.5625 16.5311 1.15625 16.7186 1.90625ZM6.81231 8.5625L11.2498 6.03125L6.81231 3.5V8.5625Z" fill="white"/>
</svg>
